<svg width="125.145" height="47.552" viewBox="0 0 125.145 47.552" xmlns="http://www.w3.org/2000/svg"><g id="svgGroup" stroke-linecap="round" fill-rule="nonzero" font-size="9pt" stroke="#000000" stroke-width="0.5" fill="#000000" style="stroke:#000000;stroke-width:0.5;fill:#000000"><path d="M 46.238 10.554 L 47.723 15.189 Q 46.373 15.662 44.685 15.853 A 34.733 34.733 0 0 1 40.815 16.044 Q 42.998 16.989 44.134 18.441 A 5.787 5.787 0 0 1 45.27 22.119 Q 45.27 24.437 44.089 26.259 Q 42.908 28.082 40.736 29.117 Q 38.565 30.152 35.573 30.152 Q 34.65 30.152 33.93 30.062 Q 33.21 29.972 32.535 29.814 Q 32.085 30.062 31.838 30.534 Q 31.59 31.007 31.59 31.502 Q 31.59 32.177 32.119 32.661 A 3.64 3.64 0 0 0 34.403 33.144 L 38.453 33.144 A 11.251 11.251 0 0 1 43.076 34.033 Q 45.068 34.922 46.181 36.429 Q 47.295 37.937 47.295 39.894 Q 47.295 43.494 44.168 45.519 A 14.31 14.31 0 0 1 37.565 47.444 A 30.298 30.298 0 0 1 35.033 47.544 Q 30.735 47.544 28.339 46.667 A 6.099 6.099 0 0 1 24.975 44.113 Q 24.008 42.437 24.008 40.074 L 29.295 40.074 Q 29.295 41.222 29.756 41.964 Q 30.218 42.707 31.489 43.067 Q 32.76 43.427 35.145 43.427 Q 37.53 43.427 38.891 43.044 A 3.643 3.643 0 0 0 40.815 41.953 Q 41.378 41.244 41.378 40.299 Q 41.378 39.017 40.298 38.297 Q 39.218 37.577 37.238 37.577 L 33.3 37.577 A 8.52 8.52 0 0 1 28.34 36.392 A 4.139 4.139 0 0 1 28.058 36.171 Q 26.415 34.764 26.415 32.919 A 4.68 4.68 0 0 1 27.101 30.501 Q 27.788 29.342 29.07 28.532 A 7.881 7.881 0 0 1 25.886 25.731 A 7.54 7.54 0 0 1 24.908 21.782 Q 24.908 19.194 26.213 17.282 Q 27.518 15.369 29.835 14.312 Q 32.153 13.254 35.168 13.254 A 39.699 39.699 0 0 0 35.49 13.256 A 24.522 24.522 0 0 0 39.881 12.917 Q 41.828 12.557 43.324 11.927 A 38.343 38.343 0 0 0 46.238 10.554 Z M 35.28 17.214 Q 33.165 17.214 32.051 18.452 Q 30.938 19.689 30.938 21.737 Q 30.938 23.852 32.085 25.089 Q 33.233 26.327 35.303 26.327 A 3.948 3.948 0 0 0 38.419 25.123 Q 39.488 23.919 39.488 21.669 A 4.65 4.65 0 0 0 38.419 18.317 A 4.177 4.177 0 0 0 35.28 17.214 Z M 52.695 4.412 L 58.635 3.827 L 58.635 16.584 Q 60.12 14.897 61.976 14.064 Q 63.833 13.232 65.858 13.232 A 6.273 6.273 0 0 1 70.796 15.088 A 7.564 7.564 0 0 1 72.45 20.297 L 72.45 37.734 L 66.51 37.734 L 66.51 21.624 Q 66.51 19.464 65.846 18.564 Q 65.183 17.664 63.585 17.664 A 4.096 4.096 0 0 0 61.751 18.103 Q 60.863 18.542 60.086 19.284 A 12.556 12.556 0 0 0 58.635 20.949 L 58.635 37.734 L 52.695 37.734 L 52.695 4.412 Z M 109.328 4.254 L 109.328 0.002 Q 112.005 0.002 114.008 0.407 A 8.755 8.755 0 0 1 117.315 1.723 Q 118.62 2.634 119.183 4.142 Q 119.745 5.649 119.498 7.854 L 118.755 15.054 A 5.943 5.943 0 0 0 118.718 15.701 A 3.411 3.411 0 0 0 119.273 17.698 A 3.878 3.878 0 0 0 121.444 19.138 Q 122.918 19.577 125.145 19.577 L 125.145 24.392 A 13.22 13.22 0 0 0 121.455 24.831 Q 119.97 25.269 119.273 26.271 A 3.437 3.437 0 0 0 118.718 28.282 A 6.101 6.101 0 0 0 118.755 28.937 L 119.498 36.092 A 11.895 11.895 0 0 1 119.574 37.403 A 7.046 7.046 0 0 1 119.194 39.827 Q 118.643 41.334 117.338 42.246 A 8.762 8.762 0 0 1 114.019 43.562 Q 112.005 43.967 109.328 43.967 L 109.328 39.714 Q 110.79 39.714 111.893 39.444 A 3.052 3.052 0 0 0 113.569 38.488 Q 114.143 37.802 114.03 36.587 L 113.243 29.049 A 11.414 11.414 0 0 1 113.177 27.863 A 5.994 5.994 0 0 1 113.681 25.258 A 4.732 4.732 0 0 1 115.853 23.064 Q 117.338 22.299 119.453 22.007 A 11.82 11.82 0 0 1 115.785 20.893 A 4.603 4.603 0 0 1 113.648 18.677 A 6.158 6.158 0 0 1 113.174 16.128 A 11.401 11.401 0 0 1 113.242 14.919 L 114.03 7.382 A 4.318 4.318 0 0 0 114.048 6.991 A 2.273 2.273 0 0 0 113.569 5.469 Q 112.995 4.794 111.893 4.524 Q 110.79 4.254 109.328 4.254 Z M 15.818 0.002 L 15.818 4.254 Q 14.355 4.254 13.253 4.524 Q 12.15 4.794 11.576 5.469 A 2.273 2.273 0 0 0 11.097 6.991 A 4.318 4.318 0 0 0 11.115 7.382 L 11.903 14.919 A 10.812 10.812 0 0 1 11.968 16.077 A 6.022 6.022 0 0 1 11.464 18.666 A 4.815 4.815 0 0 1 9.337 20.893 A 10.74 10.74 0 0 1 5.895 21.984 Q 8.01 22.322 9.439 23.076 Q 10.868 23.829 11.509 25.258 A 6.217 6.217 0 0 1 11.971 27.806 A 11.961 11.961 0 0 1 11.903 29.049 L 11.115 36.587 Q 11.003 37.802 11.576 38.488 Q 12.15 39.174 13.264 39.444 Q 14.378 39.714 15.818 39.714 L 15.818 43.967 Q 13.14 43.967 11.138 43.562 A 8.755 8.755 0 0 1 7.83 42.246 Q 6.525 41.334 5.974 39.827 Q 5.423 38.319 5.648 36.114 L 6.39 28.937 Q 6.57 27.272 5.918 26.271 A 3.659 3.659 0 0 0 3.791 24.831 A 13.591 13.591 0 0 0 0 24.392 L 0 19.577 A 13.615 13.615 0 0 0 3.78 19.138 Q 5.265 18.699 5.918 17.698 A 3.526 3.526 0 0 0 6.429 15.735 A 6.251 6.251 0 0 0 6.39 15.054 L 5.648 7.877 A 11.895 11.895 0 0 1 5.571 6.566 A 7.046 7.046 0 0 1 5.951 4.142 A 4.957 4.957 0 0 1 7.808 1.723 A 8.762 8.762 0 0 1 11.126 0.407 Q 13.14 0.002 15.818 0.002 Z M 89.348 28.374 L 84.105 37.734 L 77.603 37.734 L 85.973 25.202 L 78.458 13.907 L 85.208 13.907 L 89.618 21.962 L 93.96 13.907 L 100.395 13.907 L 93.15 24.954 L 101.543 37.734 L 94.703 37.734 L 89.348 28.374 Z"/></g></svg>